<svg width="772" height="735" viewBox="0 0 772 735" fill="none" xmlns="http://www.w3.org/2000/svg">
<path d="M399.533 477.815C398.736 473.286 398.052 468.609 397.69 465.249C397.806 464.393 397.886 463.977 397.884 463.558C397.881 462.847 397.647 462.146 397.531 462.277C397.497 462.315 397.473 462.418 397.453 462.566C397.404 462.934 397.379 463.579 397.294 464.17C397.173 464.998 396.856 465.704 396.823 464.605C396.706 460.71 398.06 456.305 395.878 443.609C395.051 438.79 395.533 435.137 393.752 431.835C392.928 430.307 391.739 429.125 390.328 428.184C387.494 426.295 384.671 424.887 381.837 423.943C379.004 422.998 376.18 422.059 372.636 421.112C369.098 420.168 365.743 418.892 362.493 417.454C358.485 415.682 355.244 414.153 351.76 412.618C346.924 410.489 343.216 408.042 339.972 406.251C336.551 404.361 334.44 401.026 331.485 400.481C330.891 400.371 329.996 400.781 329.84 401.673C329.49 403.675 328.988 406.257 327.951 410.17C326.419 415.951 323.758 422.427 323.239 428.089C322.882 431.984 321.594 435.783 319.928 441.67C317.462 450.38 316.419 453.454 315.452 456.864C314.151 461.46 313.185 464.386 311.678 469.841C310.146 475.384 308 479.945 307.673 483.51C307.316 487.412 306.43 492.647 305.313 500.742C304.486 506.742 303.594 510.486 303.428 516.33C303.071 528.917 302.227 539.301 302.013 548.77C301.655 564.534 301.321 568.784 300.477 574.436C299.773 579.152 299.265 584.333 298.355 590.469C297.651 595.213 296.416 605.609 295.288 612.06C294.113 618.774 293.383 625.402 292.578 633.166C291.99 638.826 291.186 645.917 290.455 651.792C289.868 656.514 287.826 661.263 289.281 685.318C289.634 691.17 289.711 693.56 289.988 696.009C290.108 697.07 290.342 697.771 299.961 698.121C309.58 698.471 328.025 698.471 337.97 698.351C347.914 698.231 349.314 697.924 354.226 697.881C367.308 697.764 376.194 697.303 383.146 697.173C389.39 697.056 400.837 697.226 407.273 696.936C415.116 696.582 422.58 697.172 431.648 696.229C437.291 695.641 440.984 694.813 444.242 694.343C448.385 693.745 455.019 693.035 455.082 689.843C455.192 684.306 455.065 679.509 454.013 675.699C453.069 672.278 452.222 669.422 451.063 666.261C449.291 661.425 448.175 657.575 446.938 653.882C445.753 650.345 444.401 647.173 443.637 643.86C442.682 639.717 440.667 634.235 439.509 628.644C438.678 624.633 436.725 620.585 435.143 615.201C433.965 611.189 431.95 607.623 430.191 601.284C429.013 597.039 428.166 593.057 426.299 589.026C424.767 585.718 424.221 582.327 422.761 577.461C420.989 571.553 419.011 564.995 417.929 561.198C416.984 557.883 416.03 553.655 414.979 548.562C413.447 541.143 410.587 536.12 410.266 531.237C409.909 525.804 408.337 518.193 406.477 510.315C401.885 490.865 400.268 481.992 399.533 477.815Z" fill="#77472D"/>
<path d="M446.839 720.855C462.033 716.82 471.572 714.65 480.131 712.741C483.34 712.719 487.099 712.537 491.842 711.054C492.332 710.901 492.817 710.742 493.296 710.576C497.781 709.027 501.78 706.959 505.329 704.739C509.541 702.105 513.023 698.6 514.783 694.392C516.544 690.18 520.14 685.815 518.627 679.138C518.269 677.561 517.558 676.118 516.692 676.357C514.767 676.888 512.245 677.409 510.734 678.996C507.396 682.503 503.924 686.237 499.866 688.629C498.983 689.149 497.942 689.149 496.885 688.792C495.828 688.434 494.787 687.74 494.266 686.321C493.746 684.901 493.966 682.778 493.567 681.241C492.337 676.509 492.442 663.76 489.707 667.071C488.835 668.128 487.489 671.852 485.501 676.546C483.566 681.115 482.172 688.513 477.782 689.323C476.899 689.486 475.858 688.792 475.159 687.909C474.459 687.025 474.137 685.973 473.581 684.748C470.947 678.949 469.683 672.173 466.215 667.223C462.892 662.481 461.383 657.316 457.981 650.745C455.53 646.013 452.985 636.664 452.907 639.056C452.733 644.319 452.943 650.424 451.503 655.519C449.915 661.135 446.847 665.657 445.54 670.594C443.963 676.551 442.398 681.684 438.699 685.301C437.99 685.995 436.736 686.193 436.249 685.458C435.203 683.881 434.552 680.769 433.978 675.636C433.447 670.894 438.164 640.304 431.517 646.039C430.292 647.096 428.473 650.799 426.432 656.928C423.982 664.289 423.215 675.814 419.071 673.197C417.672 672.313 415.488 669.213 412.583 664.768C409.26 659.683 405.934 654.634 402.245 650.224C398.723 646.013 393.32 641.633 389.447 637.784C388.564 636.906 387.523 636.212 387.002 638.904C386.482 641.596 387.029 647.563 386.303 651.16C384.715 659.031 383.627 664.742 381.392 670.063C379.1 675.521 376.6 683.353 371.565 685.474C370.329 685.995 368.773 686.232 367.174 684.922C363.325 681.767 359.546 677.743 357.026 673.181C354.219 668.096 350.628 656.965 347.036 660.588C345.816 661.818 345.192 663.958 344.412 666.209C342.651 671.293 340.246 677.904 334.759 680.216C333.523 680.737 331.895 681 331.083 680.021C329.338 677.918 328.975 675.402 328.465 673.36C327.234 668.433 326.532 662.85 325.483 657.58C324.437 652.322 325.126 647.836 322.849 640.402C322.313 638.651 321.122 637.136 320.394 637.626C318.836 638.673 317.94 640.815 317.094 642.839L317.071 642.895C315.309 647.106 312.68 651.376 310.761 655.514C308.642 660.083 306.378 666.521 303.042 670.057C299.893 673.396 300.273 679.393 294.976 682.845C293.919 683.534 292.799 683.293 291.822 682.477C289.724 680.726 288.609 677.102 285.338 673.36C281.658 669.148 279.496 663.754 275.695 659.51C271.142 654.425 268.848 649.823 265.358 646.018C263.433 643.92 265.072 656.313 262.214 676.083C260.626 687.067 260.366 696.717 256.945 694.581C253.264 692.283 248.447 687.793 245.556 682.824C243.106 678.612 238.812 667.283 237.501 671.277C237.154 672.334 237.586 674.431 238.032 676.546C238.92 680.758 239.887 685.077 241.365 689.344C243.127 694.428 245.473 699.258 246.623 703.888C247.67 708.099 248.168 712.847 251.009 716.507C254 720.361 258.067 724.145 262.408 725.961C266.62 727.722 270.933 729.997 275.905 731.392C280.291 732.623 286.581 733.971 305.261 734.195C319.726 734.368 346.801 734.669 361.043 734.19C376.681 733.664 379.462 732.715 382.118 732.439C387.218 731.908 395.488 730.576 403.334 729.279C410.711 728.059 417.106 727.879 422.988 726.292C435.928 722.801 440.239 722.608 446.839 720.855Z" fill="#608027"/>
<path d="M410.353 530.052C410.137 529.27 410.006 525.552 410.057 522.689C410.274 522.731 410.418 522.757 410.564 522.731C410.772 522.695 410.977 522.558 411.045 522.384C411.112 522.21 411.073 521.993 410.974 521.797C410.557 520.966 409.948 519.935 409.107 519.726C408.277 519.52 407.427 519.345 406.447 519.07C405.582 518.827 404.755 518.552 403.925 518.275C403.095 517.998 402.241 517.854 401.438 517.619C400.608 517.377 399.635 517.122 398.743 516.824C397.913 516.547 397.094 516.111 396.083 515.788C395.219 515.511 394.142 515.042 393.112 514.543C391.969 513.99 390.781 513.723 389.83 513.057C388.794 512.332 387.911 511.884 387.136 511.4C386.306 510.881 385.477 510.335 384.614 509.949C383.612 509.5 382.121 508.727 380.918 508.326C380.088 508.05 379.197 507.81 378.431 507.428C377.601 507.013 376.773 506.6 375.944 506.254C375.114 505.906 374.161 505.333 373.25 504.837C372.419 504.385 371.562 503.884 370.762 503.351L368.275 501.693C367.445 501.139 366.494 500.547 365.581 500.243C364.751 499.966 363.841 499.324 362.886 499.206C361.21 499 358.558 498.855 357.012 499.243C356.045 499.485 355.229 499.796 354.353 500.038C353.351 500.314 352.468 500.625 351.694 501.109C350.864 501.628 350.064 502.096 349.207 502.491C348.376 502.872 347.577 503.34 346.719 503.734C345.889 504.116 345.062 504.528 344.232 504.805L341.745 505.634C340.915 505.911 340.115 506.32 339.258 506.428C338.428 506.532 337.582 506.666 336.251 506.912C335.319 507.084 334.351 507.428 326.15 507.256C324.47 507.22 324.197 507.152 322.263 507.118C320.329 507.084 316.832 507.229 314.991 507.048C312.519 506.806 311.651 505.988 310.443 505.908C309.408 505.84 308.552 505.941 308.168 506.257C307.408 506.881 306.641 507.512 306.096 508.33C305.82 508.744 305.415 509.966 305.719 511.478C305.961 512.684 305.93 513.58 306.342 514.341C306.79 515.171 306.941 516.085 307.551 516.828C308.175 517.588 308.932 518.279 309.938 518.693C311.284 519.246 312.138 519.744 312.941 520.178C313.771 520.627 314.611 521.014 315.428 521.421C316.329 521.87 317.324 522.223 318.469 522.838C319.367 523.321 320.288 523.735 321.579 524.705L321.622 524.737C322.708 525.553 323.649 526.26 324.756 526.776C325.793 527.259 327.468 528.341 329.427 529.475C332.288 531.131 334.071 532.259 336.239 533.59C340.786 536.383 342.092 537.266 343.203 538.212C344.38 539.214 345.554 540.297 347.627 541.39C349.007 542.116 350.572 543.493 352.426 544.706C353.43 545.362 354.306 546.209 355.259 546.639C356.261 547.09 358.949 549.627 361.271 550.993C362.62 551.787 363.77 552.408 365.416 553.654C366.417 554.411 367.244 554.767 368.005 555.449C368.697 556.069 369.354 556.673 370.32 557.244C371.255 557.798 372.566 558.526 373.707 559.388C375.267 560.567 376.809 561.933 378.441 563.189L378.562 563.282C380.313 564.63 381.865 565.824 383.52 568.03C385.071 570.097 387.08 572.915 389.532 576.428C390.808 578.255 391.95 580.01 392.774 581.257C393.71 582.674 394.901 583.844 396.24 585.693C398.415 588.697 400.195 590.916 400.719 591.619C401.727 592.971 403.079 594.388 403.689 595.245C404.629 596.565 405.95 598.137 406.764 599.114C407.808 600.366 409.579 602.349 410.53 603.883C411.605 605.619 413.308 607.774 414.641 609.237C415.68 610.378 416.365 611.664 419.897 614.421C421.621 615.766 422.538 616.513 423.693 617.354C425.99 619.025 428.759 621.029 430.222 621.74C431.569 622.395 433.499 624.488 437.133 625.538C437.717 625.707 437.99 625.583 437.99 625.396C437.989 625.017 438.007 624.443 437.85 623.841C437.506 622.519 437.478 620.834 437.09 619.868C436.743 619.004 436.106 618.082 435.673 617.14C435.292 616.31 435.047 615.475 434.81 614.617C434.533 613.615 434.273 612.763 433.947 611.23C433.704 610.091 433.63 609.246 433.359 608.434C433.083 607.604 432.619 606.847 432.392 605.947C432.183 605.117 431.789 604.285 431.494 603.287C431.217 602.352 430.676 601.425 430.493 600.558C430.318 599.728 429.888 598.948 429.698 598.036C429.488 597.034 429.3 596.027 428.834 595.169C428.382 594.339 427.774 593.569 427.625 592.682C427.486 591.852 427.379 590.993 427.107 590.022C426.864 589.157 426.532 588.307 426.243 587.465C425.899 586.463 425.618 585.498 425.241 584.599C424.862 583.698 424.722 582.706 424.413 581.558C424.17 580.659 423.695 579.855 423.41 579.002C423.134 578.172 422.989 577.318 422.754 576.515C422.512 575.685 422.236 574.858 421.96 574.028L421.96 574.028C421.683 573.198 421.124 572.456 420.993 571.506C420.854 570.503 420.497 569.699 420.301 568.846C420.095 567.946 419.79 567.01 419.715 566.046C419.61 564.7 419.602 563.831 419.231 562.351C418.988 561.384 418.673 559.618 418.505 558.24C418.367 557.097 417.996 556.023 417.814 555.167C417.608 554.196 417.325 553.146 417.019 552.057C416.708 550.95 416.206 549.869 415.984 548.776C415.809 547.911 415.468 547.095 415.362 546.254C415.258 545.424 414.962 544.603 414.705 543.767C414.428 542.866 414.034 541.957 413.703 541.072C413.392 540.242 412.865 539.452 412.632 538.55C412.356 537.477 411.874 536.596 411.63 535.683C411.39 534.783 411.234 533.685 410.974 532.746C410.698 531.744 410.589 530.91 410.353 530.052Z" fill="#48200A"/>
<path d="M633.835 473.856C632.389 471.251 630.882 468.592 629.615 466.865C629.641 466.855 629.667 466.844 629.693 466.833C633.142 465.976 636.578 465.399 640.028 464.249C643.477 463.099 646.913 461.377 650.362 459.078C653.811 456.778 657.272 454.455 659.689 451.18C662.131 447.873 665.089 444.834 667.44 440.122C669.589 435.816 672.654 432.915 673.464 428.931C674.463 424.017 675.171 416.793 672.444 414.436C669.279 411.702 666.117 408.614 661.674 407.551C657.497 406.552 653.036 405.217 648.743 404.972C641.134 404.537 635.45 403.637 631.097 403.249C626.218 402.814 622.206 402.619 619.333 400.226C615.883 397.354 613.353 393.768 609.717 392.191C606.41 390.757 603.089 388.92 599.085 388.609C593.492 388.174 582.575 386.993 570.579 386.886C554.651 386.744 543.566 386.096 539.92 386.025C532.604 385.883 526.904 385.236 522.252 385.164C513.072 385.022 506.224 384.462 495.873 384.302C486.667 384.16 469.891 384.406 461.076 384.014C451.4 383.583 449.338 383.608 446.939 383.153C441.625 382.145 435.287 381.722 429.861 380.711C425.262 379.854 421.238 379.413 417.808 378.847C413.481 378.132 407.695 378.211 400.287 377.124C395.412 376.409 390.257 375.173 385.797 374.541C380.754 373.826 375.013 373.393 370.863 372.672C362.634 371.242 353.584 370.288 348.907 369.515C343.722 368.658 338.645 367.752 333.547 366.932C328.22 366.075 317.247 364.05 310.725 362.484C304.089 360.89 296.323 357.93 291.778 356.739C285.728 355.155 273.017 352.014 265.657 347.839C261.338 345.388 254.749 342.523 250.293 339.941C243.821 336.191 237.351 331.89 232.07 328.315C227.165 324.995 218.617 318.628 212.834 314.389C208.528 311.233 205.07 308.966 201.643 305.923L200.7 305.086C194.375 299.471 185.725 291.793 182.403 288.26C177.817 283.381 175.234 280.238 172.22 277.503C169.205 274.769 166.631 271.63 163.607 268.745C160.3 265.588 157.676 262.403 154.276 260.137C150.827 257.837 148.683 254.737 145.664 253.105C142.215 251.24 138.667 249.742 135.329 247.938C131.88 246.073 128.15 244.715 124.848 241.758C120.684 238.029 118.402 232.232 114.66 233.017C111.211 233.74 107.911 236.233 104.326 238.624C100.876 240.923 96.7318 243.046 93.9867 249.264C90.5591 257.028 89.9752 262.564 89.9821 266.48C89.9907 271.358 93.5193 275.918 90.8347 278.524C90.249 279.092 89.1032 279.144 88.1046 278.946C84.5134 278.231 80.4649 273.329 63.3661 277.955C50.6331 281.4 46.9152 283.521 43.1793 285.848C39.7301 287.997 34.3098 290.51 31.2687 294.03C28.5343 297.195 24.2854 301.335 21.9417 306.522C19.9222 310.991 15.434 316.35 17.5021 326.054C18.5098 330.782 20.2372 333.793 22.0967 336.949C22.523 337.672 22.6641 338.668 22.0838 339.097C19.3538 341.117 17.0193 345.113 15.4825 349.01C13.0324 355.224 9.25464 379.141 12.3391 391.227C14.4965 399.679 15.7586 405.117 19.2332 408.287C24.2971 412.908 38.5924 421.11 46.8136 423.354C51.546 424.646 66.9689 417.927 77.3997 426.816C81.9469 430.692 82.8508 434.626 83.5316 437.724C84.8234 443.601 87.5918 451.636 92.148 456.515C98.1033 462.893 107.546 471.412 112.559 473.313C122.734 477.172 127.222 479.411 137.612 479.76C154.685 480.332 166.313 480.033 168.813 479.751C176.422 478.894 183.953 477.901 189.19 475.441C195.955 472.263 203.947 463.805 204.674 466.992C205.101 468.861 205.656 472.049 206.832 475.329C208.838 480.927 210.143 486.361 213.3 490.688C218.329 497.582 221.707 505.299 240.385 510.651C256.868 515.375 269.465 518.227 281.478 518.222C290.361 518.217 304.585 518.201 312.555 517.645C324.827 516.788 330.042 512.908 337.315 511.332C338.606 511.052 339.459 511.336 340.178 511.917C340.897 512.499 341.434 513.368 341.896 514.217C343.774 517.666 349.441 528.342 356.692 533.164C360.998 536.027 366.647 541.142 387.17 546.086C395.464 548.084 409.504 550.085 425.787 548.36C433.917 547.499 437.373 546.655 440.088 546.211C444.536 545.483 449.584 542.409 456.162 538.74C460.038 536.578 463.752 533.83 465.916 530.266C468.357 526.244 468.241 518.63 472.233 519.371C473.809 519.664 475.48 522.304 479.419 525.852C485.306 531.153 490.103 534.412 500.528 537.754C507.715 540.058 515.006 544.535 524.263 544.062C547.365 542.882 558.118 539.469 562.807 534.141C565.967 530.55 569.612 527.549 570.838 521.361C571.979 515.599 569.852 504.588 572.129 506.457C574.58 508.468 577.813 512.201 587.855 512.197C609.614 512.189 615.929 512.629 621.662 509.601C626.545 507.021 633.601 505.007 634.568 498.254C635.709 490.279 636.087 477.91 633.835 473.856Z" fill="#384D13"/>
<path d="M684.745 338.82C682.417 336.571 679.403 333.909 676.198 331.614C679.201 329.826 682.297 328.21 685.06 326.483C688.509 324.325 693.385 322.997 695.101 318.87C696.535 315.42 698.143 310.953 696.092 307.674C693.934 304.225 688.779 301.782 687.342 297.339C687.062 296.474 687.227 295.467 687.927 295.048C689.361 294.191 692.301 293.37 695.394 291.173C698.843 288.723 702.717 286.779 704.863 283.56C706.009 281.842 707.471 277.947 706.431 273.359C705.423 268.915 705.241 264.94 702.981 262.029C700.531 258.873 698.166 255.239 694.507 253.421C691.058 251.708 687.619 251.148 684.172 250.7C678.674 249.985 670.197 248.652 665.062 248.405C656.024 247.97 650.959 246.423 647.14 245.821C642.52 245.094 636.615 244.28 632.642 242.949C628.758 241.649 624.389 240.898 619.865 238.639C616.132 236.774 610.858 234.712 606.517 232.61C602.06 230.453 597.963 229.155 594.46 228.162C589.417 226.732 583.25 224.944 578.372 224.291C566.371 222.685 548.649 219.903 542.214 219.124C538.623 218.689 531.163 217.62 516.498 217.401C506.999 217.259 489.655 217.506 480.555 217.113C470.595 216.682 467.94 216.796 464.989 216.251C461.113 215.537 449.65 215.736 431.655 206.326C422.359 201.464 418.725 200.121 414.035 197.442C410.009 195.143 405.919 192.431 402.409 190.411C395.609 186.496 386.55 181.039 382.889 178.207C378.419 174.749 372.024 170.956 368.395 167.153C365.518 164.139 360.33 160.711 357.057 156.819C354.03 153.219 349.434 146.916 345.422 141.016C340.836 134.272 338.702 130.426 337.253 125.953C335.669 121.061 343.715 113.983 333.231 86.5824C330.501 79.4473 328.133 69.3802 330.23 63.0885C331.38 59.6393 334.467 56.0531 333.236 52.7539C331.948 49.3047 332.531 44.3961 327.052 41.2739C325.05 40.1328 322.941 39.8104 320.882 38.983C317.29 37.5405 311.568 35.7765 300.251 35.6846C282.747 35.5425 270.226 36.1306 267.189 36.2616C263.895 36.4037 259.888 37.2232 255.705 37.8419C249.823 38.7118 241.09 41.3732 229.287 47.9052C222.556 51.63 218.746 53.9977 214.952 57.2279C211.068 60.535 205.787 70.6572 199.002 71.2872C194.412 71.7135 190.102 71.9899 187.535 72.5791C183.802 73.436 179.919 74.9733 170.302 78.0349C164.838 79.7745 158.762 81.9905 153.496 85.3724C143.893 91.5387 135.727 95.0829 133.429 101.154C131.853 105.318 130.22 108.666 129.705 112.923C129.27 116.514 125.518 119.856 126.695 123.399C127.84 126.849 129.292 130.18 129.274 133.734C129.27 134.6 129.111 135.64 128.111 136.171C123.517 138.613 115.18 142.392 109.578 155.897C102.572 172.786 100.037 176.65 99.562 181.824C99.127 186.565 98.0253 203.894 99.2778 213.827C99.7127 217.276 100.493 221.642 102.296 225.023C104.604 229.35 118.274 240.03 113.479 241.808C112.33 242.234 108.772 242.05 103.278 245.399C98.5242 248.297 93.971 253.444 92.3795 256.888C90.515 260.923 88.2736 273.428 91.824 283.749C94.8383 292.512 101.602 310.352 110.211 318.62C113.794 322.06 119.556 326.733 125.571 330.961C130.441 334.384 134.066 334.632 134.303 337.14C135.023 344.736 135.609 348.746 136.456 352.776C137.581 358.119 140.899 365.078 143.868 371.304L144.07 371.727C146.804 377.462 149.548 383.168 153.263 387.224C158 392.396 160.801 396.336 167.361 399.432C180.409 405.59 185.551 407.875 193.473 409.461C198.486 410.464 214.827 411.854 236.159 410.886C251.907 410.171 262.415 406.129 264.493 409.607C265.35 411.041 265.738 412.847 266.5 414.49C268.235 418.232 274.668 427.754 286.342 434.884C291.497 438.032 298.547 443.314 307.304 446.071C312.734 447.781 316.769 449.243 331.763 449.064C344.763 448.909 368.079 448.267 380.305 447.484C393.68 446.627 397.939 447.39 403.033 445.903C412.386 443.173 422.311 437.64 422.811 440.62C423.823 446.652 423.607 453.195 432.732 458.128C439.669 461.879 447.822 467.772 460.218 470.766C473.265 473.919 482.659 476.686 492.573 477.208C500.746 477.639 514.961 478.17 522.647 477.919C531.475 477.63 535.901 477.96 543.889 476.761C555.356 475.038 564.722 472.428 569.523 471.025C577.481 468.7 590.609 462.648 596.363 458.098C601.819 453.783 606.96 450.288 610.706 445.61C613.583 442.019 615.24 436.55 618.746 436.585C619.611 436.593 620.398 437.276 621.33 437.739C625.364 439.745 630.189 443.778 645.039 441.029C652.062 439.728 659.201 437.958 664.248 435.138C667.84 433.131 671.474 430.326 675.733 427.529C679.897 424.795 683.638 421.688 688.362 416.76C691.954 413.013 695.539 407.904 696.535 403.984C697.965 398.355 697.902 391.334 696.238 387.048C694.503 382.578 691.585 376.307 687.325 372.833C680.982 367.662 669.547 364.216 672.133 362.081C672.998 361.366 674.868 361.058 676.447 360.07C679.897 357.913 686.617 355.806 687.062 350.015C687.337 346.424 688.078 342.038 684.745 338.82Z" fill="#88B735"/>
<path d="M295.093 27.4901C295.619 27.2898 296.131 27.0973 296.628 26.9122C294.916 21.7068 295.493 14.8636 296.07 11.4155C296.931 9.69742 298.311 8.15215 300.096 7.11377C303.545 5.10714 306.928 4.08184 311.163 3.81962C318.186 3.38471 321.743 2.80901 325.071 1.80868C329.399 0.508245 349.528 -0.276688 362.125 0.0905549C367 0.232656 375.127 0.890164 383.531 4.56026C396.023 10.0161 404.684 18.8121 413.208 19.3258C415.495 19.4636 417.214 18.517 424.947 18.4603C444.32 18.3182 459.15 18.8111 463.017 19.0373C465.445 19.1794 469.705 20.7485 475.806 21.3367C483.264 22.0559 490.132 23.2657 496.195 24.4974C508.256 26.9476 522.938 32.7296 532.491 38.8582C538.089 42.4495 543.94 45.1216 547.984 49.4813C551.575 53.3524 554.756 57.8246 558.603 60.0915C559.326 60.5178 560.182 60.591 561.045 60.5178C564.494 60.2249 576.287 58.2217 585.034 60.6685C593.792 63.1186 599.7 63.1527 609.014 68.4323C619.939 74.6245 631.527 80.6075 641.908 89.713C651.227 97.8859 657.896 104.917 660.808 108.483C665.256 113.93 668.496 118.621 670.703 122.685C673.283 127.434 673.047 133.772 676.456 135.017C677.623 135.444 679.621 135.364 681.339 135.59C686.786 136.305 693.145 135.068 703.589 139.616C709.195 142.058 714.675 144.477 719.37 148.375C723.526 151.824 727.488 154.583 731.427 162.171C734.997 169.048 737.681 175.839 740.173 185.282C742.18 192.887 736.827 218.716 745.345 220.85C747.063 221.281 749.776 223.357 753.535 225.307C757.974 227.611 762.825 230.789 766.298 238.234C768.309 242.544 774.496 246.895 770.875 265.539C769.153 274.409 764.388 278.49 765.721 281.717C766.018 282.436 767.003 282.917 767.444 283.728C768.3 285.304 770.025 290.734 768.438 297.382C767.138 302.829 765.569 306.928 762.836 311.002C760.231 314.886 755.914 318.414 749.466 320.471C742.731 322.62 731.174 312.161 723.056 324.928C719.771 330.096 717.434 333.452 712.429 335.259C703.683 338.415 698.687 340.208 690.619 341.855C685.029 342.997 680.943 345.248 664.911 343.711C657.453 342.997 652.204 342.951 645.267 341.27C640.522 340.12 628.578 337.171 618.117 332.214C607.503 327.185 597.837 323.633 590.58 319.589C585.697 316.867 579.08 311.112 574.94 314.008C571.642 316.316 567.862 322.201 561.729 323.77C556.123 325.204 535.406 325.428 520.658 325.053C515.069 324.911 508.224 323.496 502.008 322.754C498.438 322.327 485.64 321.028 469.536 314.843C459.064 310.822 451.396 307.812 445.456 303.936C438.429 299.35 430.047 294.671 421.592 288.55C403.963 275.787 398.058 266.5 390.782 265.483C388.78 265.203 386.268 266.198 382.308 268.226C376.421 271.24 363.172 272.532 353.031 271.658C347.984 271.223 341.884 271.308 333.753 268.049C318.72 262.025 309.005 260.049 299.485 250.536C294.606 245.662 284.207 236.942 274.656 218.943C272.232 214.374 269.249 210.668 267.921 205.602C265.617 196.814 260.077 188.147 262.336 164.957C263.344 154.614 265.057 146.235 266.504 140.723C268.804 131.964 271.141 125.246 275.707 120.054C282.893 111.881 295.144 109.084 292.186 105.581C291.462 104.724 289.058 103.949 287.001 101.55C280.809 94.3291 274.964 85.3674 273.95 79.7229C271.663 66.9941 271.4 51.8444 273.536 47.7287C275.401 44.1374 276.389 39.8567 281.726 35.9602C285.46 33.2344 289.666 29.5531 295.093 27.4901Z" fill="#B9E270"/>
<path d="M607.955 395.371C604.082 392.169 596.842 389.279 589.794 387.537C589.077 386.41 588.262 385.273 587.281 384.029C582.252 379.15 577.756 375.8 571.887 375.865C558.138 376.016 548.347 382.819 545.81 378.586C543.204 374.241 539.14 367.98 534.597 364.363C528.288 359.342 522.79 355.969 516.515 352.315C511.339 349.301 505.825 345.317 491.794 345.145C480.921 345.012 474.022 345.574 464.967 347.165C455.946 348.749 449.117 355.395 444.324 351.889C442.752 350.739 440.253 347.268 434.558 346.579C426.303 345.58 415.451 345.975 411.882 346.588C407.718 347.303 400.574 347.636 396.38 351.045C391.045 355.381 383.342 361.167 383.044 366.572C382.76 371.735 382.927 375.787 383.625 377.458C385.068 380.907 385.04 384.428 386.351 394.411C387.066 399.854 387.37 405.438 389.8 409.323C391.958 412.772 394.595 417.249 398.275 418.788C401.724 420.23 405.826 424.96 427.595 422.943C435.311 422.228 440.973 418.39 442.477 421.806C443.045 423.098 443.047 426.63 446.072 429.131C450.245 432.58 454.694 434.654 459.877 436.309C470.638 439.745 479.443 444.769 499.498 441.89C506.517 440.882 513.473 439.611 517.122 436.572C520.572 433.7 523.199 427.262 526.596 428.834C530.338 430.565 546 438.498 568.679 435.861C574.828 435.147 578.716 435.334 584.017 431.689C588.608 428.532 593.722 425.681 595.342 421.354C596.634 417.905 592.804 410.555 599.364 407.144C602.387 405.572 608.008 405.143 608.833 401.258C609.26 399.251 609.59 396.723 607.955 395.371Z" fill="#AFD56B"/>
<path d="M153.134 209.103C154.704 210.579 156.094 211.986 157.312 213.308C158.08 213.49 158.838 213.709 159.572 213.969C162.306 217.276 164.132 220.92 165.884 224.162C167.749 227.611 168.894 231.047 170.044 234.496L170.044 234.496C171.194 237.945 172.06 241.419 172.77 245.696C173.485 250.002 172.721 253.955 174.785 257.314C175.224 258.029 176.167 258.179 177.089 258.895C181.546 262.352 186.985 265.983 186.98 271.55C186.971 280.438 187.194 284.985 185.249 287.892C182.941 291.341 178.06 295.239 179.806 298.226C181.821 301.675 184.989 303.546 188.285 306.266C192.449 309.702 195.667 311.913 200.053 313.577C204.23 315.162 208.686 317.319 212.252 318.026L212.327 318.04C216.646 318.895 222.34 320.023 226.617 322.629C233.218 326.651 237.547 329.364 239.811 333.11C242.675 337.846 244.44 346.916 241.658 352.629C239.488 357.086 235.768 361.421 232.034 362.094C223.314 363.666 206.166 359.839 205.776 363.11C205.057 369.143 204.306 373.954 201.177 378.896L200.994 379.185C198.295 383.451 195.023 388.622 190.119 391.952C186.093 394.687 181.398 399.252 161.238 397.107C154.521 396.392 148.392 396.958 143.032 394.519C137.003 391.776 132.922 389.594 127.246 384.748C122.363 380.58 119.551 374.626 115.628 373.565C114.052 373.139 111.904 375.887 103.558 377.312C92.6853 379.168 74.9048 380.422 65.234 375.856C60.0624 373.415 51.8204 369.652 46.7265 365.375C42.2697 361.633 38.1714 358.04 35.8235 353.46C33.382 348.698 39.4718 322.951 30.3677 317.586C29.6443 317.16 28.7688 317.26 27.9262 317.014L27.8086 316.979C24.366 315.974 19.5235 314.56 16.7304 310.83C12.4028 305.051 5.38171 297.225 3.53223 289.868C2.3782 285.278 -1.36981 281.727 0.526581 266.167C1.24139 260.303 1.3842 255.444 3.11023 250.976C5.28911 245.335 17.8687 232.21 14.728 226.719C12.42 222.685 6.46924 214.884 6.55078 207.445C6.70149 193.696 9.52037 187.344 13.1649 182.078C14.4524 180.218 17.5459 177.258 25.0066 177.208C45.1978 177.075 51.6115 178.337 55.8037 179.658C61.2681 181.381 69.7654 192.388 75.1725 188.692C77.9068 186.824 82.1567 182.958 104.35 186.26C112.08 187.409 119.159 188.642 124.985 191.285C131.061 194.041 143.358 199.914 153.134 209.103Z" fill="#4E7012"/>
</svg>
